<svg xmlns="http://www.w3.org/2000/svg" xmlns:xlink="http://www.w3.org/1999/xlink" aria-hidden="true" role="img" class="iconify iconify--ph" width="32" height="32" preserveAspectRatio="xMidYMid meet" viewBox="0 0 256 256"><path fill="currentColor" d="M224 208V48a16 16 0 0 0-16-16H48a16 16 0 0 0-16 16v160a16 16 0 0 0 16 16h160a16 16 0 0 0 16-16Zm-56.4-80.4a8 8 0 0 1-11.3 0L136 107.3V168a8 8 0 0 1-16 0v-60.7l-20.3 20.3a8 8 0 0 1-11.3-11.3l33.9-33.9a8.7 8.7 0 0 1 2.6-1.8a8.5 8.5 0 0 1 3.1-.6a7.7 7.7 0 0 1 3 .6a8 8 0 0 1 2.7 1.8l33.9 33.9a8 8 0 0 1 0 11.3Z"></path></svg>